<svg xmlns="http://www.w3.org/2000/svg" viewBox="0 0 64 64"><rect width="64" height="64" rx="14" fill="#123f31"/><circle cx="48" cy="14" r="7" fill="#dd7f2a"/><path d="M8 50l17-27q1.5-2.6 3 0L46 50q.7 1.8-1.8 1.8H9.8Q7.3 51.8 8 50Z" fill="#f5f1e6"/><path d="M21 32.5l4-6.5q1.5-2.6 3 0l4 6.5-3.2-1.7-2 3.2-2.3-3.2-1.9 2.7Z" fill="#1b5c44"/><circle cx="23" cy="40" r="2.2" fill="#123f31"/><circle cx="33" cy="40" r="2.2" fill="#123f31"/><path d="M25.5 44.5q2 1.8 4.4 0" stroke="#123f31" stroke-width="1.8" fill="none" stroke-linecap="round"/><ellipse cx="18.6" cy="43" rx="2.4" ry="1.5" fill="#eba9a9"/><ellipse cx="37.4" cy="43" rx="2.4" ry="1.5" fill="#eba9a9"/></svg>